<?xml version="1.0" standalone="no"?>
<!DOCTYPE svg PUBLIC "-//W3C//DTD SVG 20010904//EN"
 "http://www.w3.org/TR/2001/REC-SVG-20010904/DTD/svg10.dtd">
<svg version="1.0" xmlns="http://www.w3.org/2000/svg"
 width="654.000000pt" height="654.000000pt" viewBox="0 0 654.000000 654.000000"
 preserveAspectRatio="xMidYMid meet">
<metadata>
Created by potrace 1.14, written by Peter Selinger 2001-2017
</metadata>
<g transform="translate(0.000000,654.000000) scale(0.100000,-0.100000)"
fill="#000000" stroke="none">
<path d="M1840 6401 c-86 -28 -136 -57 -195 -116 -64 -64 -107 -130 -162 -246
-35 -73 -84 -207 -99 -274 -25 -102 -36 -194 -40 -325 -4 -127 -8 -156 -21
-163 -8 -5 -24 -18 -34 -28 -11 -11 -23 -19 -27 -19 -4 0 -23 -19 -42 -42 -40
-48 -112 -158 -104 -158 4 0 2 -6 -4 -12 -15 -19 -52 -146 -59 -203 -11 -89
-2 -233 17 -270 1 -3 4 -9 5 -15 1 -5 4 -12 5 -15 1 -3 3 -8 5 -12 1 -5 7 -21
14 -37 10 -25 9 -32 -12 -60 -95 -124 -143 -342 -115 -526 5 -36 34 -137 63
-225 73 -220 83 -262 80 -347 -3 -88 -17 -135 -61 -205 -87 -137 -242 -186
-504 -159 -85 8 -98 0 -75 -47 17 -36 68 -78 118 -96 39 -15 113 -14 194 3 38
8 82 17 98 20 l30 6 -30 -25 c-47 -38 -154 -91 -223 -110 -77 -22 -169 -17
-287 13 -22 6 -55 13 -73 16 l-33 4 27 -36 c86 -115 239 -271 328 -334 92 -64
174 -89 289 -89 49 1 92 3 95 5 4 2 30 6 57 10 69 8 249 44 283 57 23 8 21 5
-13 -23 -114 -92 -174 -177 -175 -246 0 -31 30 -105 48 -115 16 -10 153 70
239 139 75 61 72 44 -22 -125 -41 -74 -75 -138 -75 -143 0 -4 -4 -8 -10 -8 -5
0 -9 -4 -7 -8 1 -4 -29 -57 -66 -118 -38 -60 -74 -118 -80 -129 -7 -11 -14
-22 -17 -25 -3 -3 -18 -23 -34 -45 -16 -22 -36 -47 -43 -55 -8 -8 -22 -25 -32
-38 -10 -12 -47 -54 -82 -93 -35 -39 -67 -76 -71 -83 -4 -8 21 -11 90 -12 104
-1 127 -7 497 -139 72 -25 171 -60 220 -77 50 -16 98 -35 108 -40 10 -5 26
-11 35 -13 9 -2 42 -13 72 -25 30 -12 66 -25 80 -30 62 -21 427 -161 442 -170
10 -5 27 -10 38 -10 11 0 20 -4 20 -10 0 -5 3 -9 8 -8 7 3 95 -27 172 -57 19
-7 69 -25 110 -40 138 -49 509 -189 586 -221 18 -8 35 -14 36 -14 3 1 79 -33
203 -89 303 -139 325 -151 411 -225 37 -30 39 -29 25 24 -12 44 -21 99 -26
170 -3 30 -7 73 -10 95 -8 69 -17 234 -20 376 -1 76 -6 142 -9 148 -4 6 -4 11
1 11 10 0 9 162 -1 178 -4 7 -3 12 1 12 5 0 9 33 9 73 1 89 13 285 19 312 3
11 7 45 10 75 3 30 8 69 11 85 3 17 7 41 9 55 1 14 4 25 5 25 1 0 4 12 14 65
2 14 5 25 6 25 1 0 3 12 5 27 8 61 34 130 46 122 9 -5 34 -11 84 -20 17 -3 41
-8 55 -10 170 -30 660 -3 660 37 0 5 7 9 15 9 8 0 15 3 15 8 0 4 22 17 50 30
56 26 122 74 193 141 26 25 68 60 93 77 47 34 210 109 254 118 44 8 154 47
195 69 49 26 146 87 161 102 6 5 26 24 45 40 19 17 50 50 69 75 19 25 38 47
41 50 25 21 95 178 106 238 14 72 5 275 -13 303 -3 5 -7 17 -9 28 -9 45 -61
161 -98 216 -89 133 -203 219 -350 263 -53 16 -88 19 -188 16 -68 -2 -140 -5
-159 -8 -175 -24 -403 -25 -488 0 -20 6 -21 9 -9 28 18 28 44 123 46 167 1 14
7 16 34 10 17 -4 106 -7 197 -6 l165 0 69 34 c37 18 84 44 105 57 20 13 45 30
55 37 28 17 83 66 131 113 l41 42 -55 5 c-31 3 -65 8 -77 11 -12 2 -45 7 -75
11 -111 13 -169 24 -188 35 -13 7 -9 10 14 11 17 0 62 2 101 4 132 5 238 40
315 104 32 27 65 76 69 106 1 6 5 15 10 20 13 17 32 124 32 189 1 88 -18 189
-69 364 -16 57 -22 58 -43 2 -53 -143 -90 -175 -227 -199 -224 -41 -502 26
-587 142 -14 20 -21 44 -21 76 0 42 7 59 49 119 42 61 48 76 43 106 -3 19 -16
49 -29 66 -26 36 -109 86 -161 97 l-36 8 38 58 c74 112 107 271 80 392 -7 33
-13 63 -13 67 -1 3 -4 10 -8 14 -5 4 -8 15 -8 24 0 49 -94 197 -179 280 -85
84 -145 113 -231 114 -138 2 -230 -88 -289 -279 -12 -38 -24 -86 -27 -105 -3
-19 -7 -36 -8 -37 -1 -2 -26 20 -56 47 -104 96 -245 143 -435 144 -155 1 -248
-13 -370 -56 -148 -51 -302 -146 -415 -256 l-75 -73 -17 23 c-10 13 -21 28
-26 33 -4 6 -15 22 -25 37 -9 15 -47 65 -84 110 -154 191 -337 336 -495 394
-65 24 -211 27 -278 5z"/>
<path d="M5720 4210 c-9 -6 -10 -10 -3 -10 6 0 15 5 18 10 8 12 4 12 -15 0z"/>
</g>
</svg>
